<svg width="512" height="512" viewBox="0 0 512 512" fill="none" xmlns="http://www.w3.org/2000/svg">
<rect width="512" height="512" fill="url(#paint0_linear_2_106)"/>
<path d="M425.061 229.219C423.413 227.185 420.935 226.004 418.318 226.004H153.167L145.14 203.957C143.892 200.527 140.632 198.246 136.983 198.246H65.6779C60.8833 198.246 57 202.134 57 206.924C57 211.719 60.8878 215.602 65.6779 215.602H130.908L190.141 378.297L174.392 439.487C173.724 442.086 174.294 444.847 175.937 446.966C177.58 449.09 180.112 450.329 182.797 450.329H202.913C206.707 463.783 219.084 473.682 233.742 473.682C248.395 473.682 260.772 463.788 264.57 450.329H320.431C324.225 463.783 336.602 473.682 351.26 473.682C368.921 473.682 383.292 459.312 383.292 441.651C383.292 423.99 368.921 409.619 351.26 409.619C336.607 409.619 324.229 419.514 320.431 432.973H264.57C260.777 419.514 248.4 409.619 233.742 409.619C219.089 409.619 206.711 419.514 202.913 432.973H193.993L205.948 386.535H388.073C392.176 386.535 395.718 383.662 396.567 379.648L426.816 236.478C427.35 233.923 426.708 231.252 425.061 229.219ZM351.251 426.98C359.341 426.98 365.922 433.561 365.922 441.651C365.922 449.741 359.341 456.322 351.251 456.322C343.161 456.322 336.58 449.741 336.58 441.651C336.58 433.566 343.161 426.98 351.251 426.98ZM233.737 426.98C241.827 426.98 248.409 433.561 248.409 441.651C248.409 449.741 241.827 456.322 233.737 456.322C226.007 456.322 219.668 450.306 219.12 442.71C219.16 442.36 219.192 442.01 219.192 441.651C219.192 441.292 219.165 440.937 219.12 440.591C219.663 432.995 226.002 426.98 233.737 426.98ZM315.754 369.179L294.133 314.822H333.168L354.789 369.179H315.754ZM258.034 369.179L236.413 314.822H275.448L297.069 369.179H258.034ZM185.499 314.822H217.733L239.354 369.179H205.288L185.499 314.822ZM247.03 243.365L268.548 297.461H229.513L207.995 243.365H247.03ZM287.228 297.466L265.711 243.369H304.746L326.263 297.466H287.228ZM323.426 243.365H362.461L383.978 297.461H344.939L323.426 243.365ZM398.43 286.822L381.146 243.365H407.61L398.43 286.822ZM189.311 243.365L210.828 297.461H179.183L159.488 243.365H189.311ZM381.029 369.179H373.469L351.848 314.822H390.883L391.947 317.493L381.029 369.179Z" fill="white"/>
<path d="M405.016 131.247C400.383 132.477 397.626 137.232 398.856 141.865C404.419 162.816 403.952 185.744 397.541 206.417C396.122 210.996 398.681 215.858 403.26 217.277C404.118 217.542 404.98 217.668 405.833 217.668C409.536 217.668 412.966 215.279 414.12 211.557C421.59 187.463 422.116 161.824 415.629 137.407C414.398 132.778 409.649 130.017 405.016 131.247Z" fill="white"/>
<path d="M315.664 59.0896C339.758 65.3567 361.644 79.588 377.289 99.1572C380.284 102.901 385.743 103.507 389.487 100.517C393.231 97.523 393.842 92.0639 390.847 88.3198C372.876 65.8416 347.731 49.4958 320.032 42.2904C273.958 30.2993 224.539 43.8661 191.061 77.698C156.785 112.338 143.914 164.805 158.276 211.364C159.425 215.095 162.859 217.488 166.567 217.488C167.416 217.488 168.278 217.362 169.126 217.102C173.706 215.688 176.274 210.83 174.864 206.251C162.365 165.725 173.566 120.06 203.403 89.9091C232.539 60.4588 275.551 48.6518 315.664 59.0896Z" fill="white"/>
<path d="M422.749 99.642C420.073 95.6644 414.677 94.6094 410.704 97.285L278.245 186.376L255.255 128.571C253.482 124.118 248.436 121.941 243.982 123.714C239.529 125.487 237.356 130.533 239.125 134.987L266.097 202.79C267.066 205.227 269.087 207.095 271.596 207.872C272.436 208.132 273.302 208.258 274.16 208.258C275.866 208.258 277.558 207.755 279.004 206.781L420.392 111.687C424.369 109.011 425.424 103.615 422.749 99.642Z" fill="white"/>
<defs>
<linearGradient id="paint0_linear_2_106" x1="256" y1="0" x2="256" y2="512" gradientUnits="userSpaceOnUse">
<stop stop-color="#FB2C36"/>
<stop offset="1" stop-color="#002CC9"/>
</linearGradient>
</defs>
</svg>
